<mxfile host="app.diagrams.net" modified="2022-05-17T09:19:56.315Z" agent="5.0 (Macintosh; Intel Mac OS X 10_15_7) AppleWebKit/537.36 (KHTML, like Gecko) Chrome/101.0.4951.64 Safari/537.36 Edg/101.0.1210.47" etag="6dPkpABaT3nbCcpuwjV4" version="18.0.3" type="github">
  <diagram id="cCcJE0nUYF9ogJv-COlF" name="Page-1">
    <mxGraphModel dx="619" dy="1191" grid="1" gridSize="10" guides="1" tooltips="1" connect="1" arrows="1" fold="1" page="1" pageScale="1" pageWidth="600" pageHeight="190" math="0" shadow="0">
      <root>
        <mxCell id="0" />
        <mxCell id="1" parent="0" />
      </root>
    </mxGraphModel>
  </diagram>
</mxfile>
